# xmcd
#
# Track frame offsets:
# 150
# 21387
# 47885
# 70017
# 88025
# 107735
# 121757
# 148072
# 169805
# 190972
# 206200
# 226707
# 248150
# 266102
#
# Disc length: 4023 seconds
#
#
# Revision: 6
# Processed by: cddbd v1.5.2PL0 Copyright (c) Steve Scherf et al.
# Submitted via: FreeRIP 2.941 
#
DISCID=ca0fb50e
DTITLE=John Mayall and The Bluesbreakers - Stories
DYEAR=2002
DGENRE=Blues
TTITLE0=Southside Story
TTITLE1=Dirty Water
TTITLE2=Feels Just Like Home
TTITLE3=Kids Got The Blues
TTITLE4=The Witching Hour
TTITLE5=Oh, Leadbelly
TTITLE6=Demons In The Night
TTITLE7=Pride And Faith
TTITLE8=Kokomo
TTITLE9=Romance Classified
TTITLE10=I Wished I Had
TTITLE11=Pieces And Parts
TTITLE12=I Thought I Heard The Devil
TTITLE13=The Mists Of Time
EXTD=
EXTT0=
EXTT1=
EXTT2=
EXTT3=
EXTT4=
EXTT5=
EXTT6=
EXTT7=
EXTT8=
EXTT9=
EXTT10=
EXTT11=
EXTT12=
EXTT13=
PLAYORDER=
